<svg xmlns="http://www.w3.org/2000/svg" viewBox="0 0 1254 1254"><rect x="132" y="132" width="990" height="990" rx="202" fill="white"/><path d="M 333.500 125.667 C 314.131 127.355, 296.684 130.777, 280.343 136.091 C 199.311 162.446, 142.723 227.070, 127.184 311 L 124.500 325.500 124.500 626.500 L 124.500 927.500 127.209 942.055 C 136.214 990.450, 156.930 1030.014, 190.637 1063.192 C 209.795 1082.049, 226.399 1093.797, 250.500 1105.546 C 272.450 1116.247, 291.502 1122.211, 318 1126.679 C 327.846 1128.339, 346.545 1128.470, 618 1128.779 C 913.176 1129.116, 920.901 1129.035, 943 1125.367 C 977.700 1119.607, 1017.579 1101.436, 1047 1077.978 C 1057.582 1069.541, 1076.786 1049.951, 1084.231 1040 C 1109.787 1005.843, 1125.520 964.910, 1129.011 923.500 C 1129.783 914.337, 1130.007 824.320, 1129.771 618.500 C 1129.458 345.653, 1129.321 325.844, 1127.684 316.500 C 1123.151 290.624, 1117.331 272.430, 1106.570 250.500 C 1094.634 226.173, 1082.612 209.349, 1064.053 191 C 1030.034 157.366, 986.193 135.399, 936.883 127.278 C 927.266 125.695, 904.769 125.559, 632 125.443 C 470.025 125.375, 335.700 125.475, 333.500 125.667 M 605.500 274.690 C 486.785 282.520, 379.778 350.469, 326.171 452.062 C 306.479 489.381, 294.223 529.261, 288.848 573.500 C 287.094 587.932, 287.066 634.978, 288.802 649 C 300.592 744.226, 355.334 829.259, 438.562 881.629 C 476.316 905.386, 518.303 920.499, 566.500 927.680 C 575.991 929.094, 584.773 929.465, 608.500 929.454 C 645.906 929.436, 652.633 928.213, 660.923 919.923 C 666.465 914.381, 668.451 909.406, 668.477 901 C 668.497 894.531, 668.092 892.764, 665.533 888.144 C 661.831 881.460, 657.332 877.693, 650.474 875.536 C 645.706 874.036, 643.279 873.981, 627.324 875.016 C 580.127 878.075, 534.498 868.998, 491.500 847.995 C 423.378 814.721, 371.244 752.169, 352.050 680.677 C 345.427 656.011, 343.503 640.062, 343.583 610.500 C 343.635 590.933, 344.057 583.841, 345.867 572.107 C 355.583 509.116, 382.982 455.293, 427.130 412.473 C 441.714 398.328, 451.152 390.708, 467.951 379.517 C 540.622 331.105, 635.534 318.039, 718.500 345.025 C 761.461 358.999, 797.667 381.406, 828.542 413.128 C 847.820 432.933, 861.088 451.349, 873.982 476.195 C 890.292 507.625, 900.260 540.930, 904.601 578.500 C 906.572 595.555, 906.055 635.236, 903.676 649.500 C 899.829 672.569, 893.327 694.321, 885.754 709.453 C 878.676 723.596, 879.705 734.800, 888.929 744.024 C 899.110 754.206, 914.331 754.623, 925.241 745.019 C 932.782 738.381, 944.401 712.546, 951.332 687 C 957.467 664.388, 960.253 640.843, 960.263 611.500 C 960.279 569.761, 954.331 533.711, 940.959 494.500 C 929.081 459.668, 914.131 431.270, 892.531 402.513 C 842.865 336.388, 763.969 290.398, 679 278.041 C 655.254 274.588, 626.753 273.288, 605.500 274.690 M 481 451.369 C 472.673 453.189, 466.145 456.858, 459.388 463.516 C 452.625 470.180, 449.735 475.080, 447.495 483.680 C 445.421 491.644, 445.305 579.811, 447.359 587.500 C 451.799 604.121, 464.766 615.885, 482.178 619.090 C 504.697 623.235, 527.493 606.765, 531.979 583.109 C 533.420 575.512, 533.331 491.657, 531.875 484.799 C 528.255 467.751, 514.413 454.302, 497.109 451.021 C 490.531 449.773, 488.061 449.827, 481 451.369 M 632.459 451.395 C 616.312 455.318, 602.780 468.979, 599.061 485.112 C 598.458 487.727, 598.039 508.348, 598.024 536.161 C 598.002 579.097, 598.150 583.305, 599.884 588.875 C 602.489 597.245, 606.064 602.973, 612.032 608.339 C 629.451 624, 654.460 623.437, 671.070 607.009 C 677.355 600.793, 682.455 591.365, 683.995 583.114 C 685.420 575.475, 685.318 491.595, 683.875 484.799 C 680.322 468.070, 667.860 455.537, 650.769 451.508 C 643.361 449.761, 639.287 449.736, 632.459 451.395 M 780.217 692.561 C 777.376 694.550, 776.100 697.103, 771.495 710 C 762.352 735.609, 749.688 753.468, 730.500 767.815 C 722.235 773.994, 704.368 782.980, 687.203 789.589 C 678.385 792.984, 674.211 795.149, 672.453 797.239 C 667.582 803.028, 670.419 811.526, 678.165 814.350 C 680.549 815.219, 687 817.572, 692.500 819.579 C 714.014 827.429, 727.653 835.438, 739.788 847.348 C 752.677 859.996, 760.318 872.846, 768.420 895.500 C 774.217 911.708, 774.797 912.844, 778.165 914.585 C 786.196 918.738, 793.097 913.948, 797.015 901.500 C 799.795 892.669, 807.363 875.100, 811.230 868.500 C 825.829 843.584, 844.178 829.812, 878.458 818.040 C 891.362 813.608, 893.539 812.242, 895.651 807.250 C 896.819 804.492, 896.819 803.508, 895.651 800.750 C 893.593 795.885, 891.717 794.700, 877 788.966 C 848.299 777.785, 834.509 768.950, 822.439 754.011 C 813.279 742.674, 804.639 724.848, 798.601 704.833 C 796.602 698.206, 795.264 695.559, 792.917 693.583 C 789.347 690.579, 783.695 690.124, 780.217 692.561" fill="black" fill-rule="evenodd"/></svg>
